<svg width="1024" height="1024" viewBox="0 0 1024 1024" fill="none" xmlns="http://www.w3.org/2000/svg">
<rect width="1024" height="1024" rx="100" fill="#FADFEA"/>
<path d="M512.091 830.091L220.045 538.045C196.75 514.75 181.22 487.667 173.455 456.795C165.879 425.924 165.973 395.242 173.739 364.75C181.504 334.068 196.939 307.364 220.045 284.636C243.72 261.341 270.708 245.905 301.011 238.33C331.504 230.564 361.902 230.564 392.205 238.33C422.697 246.095 449.78 261.53 473.455 284.636L512.091 322.136L550.727 284.636C574.591 261.53 601.674 246.095 631.977 238.33C662.28 230.564 692.583 230.564 722.886 238.33C753.379 245.905 780.462 261.341 804.136 284.636C827.242 307.364 842.678 334.068 850.443 364.75C858.208 395.242 858.208 425.924 850.443 456.795C842.867 487.667 827.432 514.75 804.136 538.045L512.091 830.091Z" fill="#EF669A"/>
</svg>
